<?xml version="1.0" encoding="UTF-8"?>
<!-- Created with Inkscape (http://www.inkscape.org/) -->
<svg width="87.263mm" height="83.686mm" version="1.1" viewBox="0 0 87.263 83.686" xmlns="http://www.w3.org/2000/svg">
 <defs>
  <filter id="filter792" x="-.0043793" y="-.0043793" width="1.0088" height="1.0088" color-interpolation-filters="sRGB">
   <feGaussianBlur stdDeviation="0.00032246127"/>
  </filter>
 </defs>
 <g transform="translate(-68.152 -28.949)">
  <g transform="translate(.061147 2.5607)">
   <g transform="matrix(.26458 0 0 .26458 111.72 68.232)" direction="rtl" filter="url(#filter792)" stroke="#000" stroke-linejoin="round" stroke-width="2">
    <path d="m-33.775 62.123-28.347-95.898 95.898-28.347 28.347 95.898z" fill="#cd0000"/>
    <path d="m-114.26 33.775 52.138-67.551 28.347 95.898z" fill="#a80000"/>
    <path d="m-62.123-33.775 28.347-80.486 67.551 52.138z" fill="#9c0000"/>
    <path d="m-33.775 62.123 95.898-28.347-28.347 80.486z" fill="#e70000"/>
    <path d="m33.775-62.123 80.486 28.347-52.138 67.551z" fill="#cd0000"/>
    <path d="m-114.26 33.775v-95.898l52.138 28.347z" fill="#850000"/>
    <path d="m-114.26 33.775 80.486 28.347-28.347 52.138z" fill="#a70000"/>
    <path d="m-114.26-62.123 80.486-52.138-28.347 80.486z" fill="#7f0000"/>
    <path d="m-62.123 114.26 28.347-52.138 67.551 52.138z" fill="#c10000"/>
    <path d="m-33.775-114.26h95.898l-28.347 52.138z" fill="#910000"/>
    <path d="m33.775 114.26 28.347-80.486 52.138 28.347z" fill="#e30000"/>
    <path d="m33.775-62.123 28.347-52.138 52.138 80.486z" fill="#a70000"/>
    <path d="m62.123 33.775 52.138-67.551v95.898z" fill="#d40000"/>
    <path d="m-114.26 62.123v-28.347l52.138 80.486z" fill="#830000"/>
    <path d="m-114.26-62.123 52.138-52.138h28.347z" fill="#5c0000"/>
    <path d="m33.775 114.26 80.486-52.138-52.138 52.138z" fill="#be0000"/>
    <path d="m62.123-114.26 52.138 52.138v28.347z" fill="#920000"/>
   </g>
   <text transform="matrix(.4958 -.16472 .1607 .50575 44.999 51.898)" x="130.81866" y="86.177643" direction="rtl" fill="#9302f8" filter="url(#filter792)" font-family="'Arial Black'" font-size="50.8px" font-weight="bold" stroke-width="1.8993" xml:space="preserve"><tspan x="130.81866" y="86.177643" fill="#e6e6e6" stroke-width="1.8993">E</tspan></text>
  </g>
 </g>
</svg>
