<?xml version="1.0" encoding="utf-8"?>
<!-- Generator: Adobe Illustrator 22.0.1, SVG Export Plug-In . SVG Version: 6.00 Build 0)  -->
<svg version="1.1" id="Layer_1" xmlns="http://www.w3.org/2000/svg" xmlns:xlink="http://www.w3.org/1999/xlink" x="0px" y="0px"
	 viewBox="0 0 78.9 93.7" style="enable-background:new 0 0 78.9 93.7;" xml:space="preserve">
<style type="text/css">
	.st0{fill:#9C1521;}
	.st1{fill:#BE1E2D;}
</style>
<g>
	<polygon class="st0" points="70,0 69.9,64.8 34.3,90.3 39.5,93.7 78.8,68.1 78.9,5.5 	"/>
	<g>
		<polygon class="st1" points="0,68.9 9.4,74.7 8.6,59.2 17.2,59.2 16.3,79.1 27.7,86.2 26.3,59.2 34.8,59.2 33.2,89.6 34.3,90.3 
			45.3,82.4 43.8,59.3 52.4,59.2 51.6,77.9 62,70.4 61.3,59.2 69.9,59.2 69.9,53.7 0,53.8 		"/>
		<polygon class="st1" points="8.3,15.7 8.2,8.5 65.3,0 0,0 0,51.7 69.9,51.8 69.9,49.8 4.1,49.8 4.1,48.1 69.9,48.1 69.9,46.1 
			8.5,46.2 8.5,17.3 17.1,16.6 17.3,44.2 26.1,44.2 26.1,15.8 34.7,15.1 34.9,44.2 43.5,44.3 43.6,14.4 52.3,13.7 52.5,44.2 
			61.1,44.3 61.2,12.9 70,12.2 70,9.7 		"/>
	</g>
</g>
</svg>
