<?xml version="1.0" encoding="utf-8"?>
<!-- Generator: Adobe Illustrator 22.0.1, SVG Export Plug-In . SVG Version: 6.00 Build 0)  -->
<svg version="1.1" id="Layer_1" xmlns="http://www.w3.org/2000/svg" xmlns:xlink="http://www.w3.org/1999/xlink" x="0px" y="0px"
	 viewBox="0 0 366 368.8" style="enable-background:new 0 0 366 368.8;" xml:space="preserve">
<style type="text/css">
	.st0{fill:#FFFFFF;}
	.st1{fill:#00695E;}
	.st2{fill:none;stroke:#00695E;stroke-width:29.8488;stroke-linecap:round;stroke-linejoin:bevel;stroke-miterlimit:10;}
	.st3{fill:none;stroke:#00695E;stroke-width:30.1106;stroke-linecap:round;stroke-linejoin:bevel;stroke-miterlimit:10;}
</style>
<circle class="st0" cx="254" cy="18.2" r="18"/>
<circle class="st0" cx="348" cy="255.2" r="18"/>
<circle class="st0" cx="112.2" cy="350.8" r="18"/>
<g>
	<circle class="st1" cx="18" cy="114.2" r="18"/>
	<path class="st2" d="M60,25.8c-0.3,25.2-0.6,50.3-1,75.5c22.2,0.3,44.3,0.6,66.5,0.9"/>
	<path class="st3" d="M59,200.2c0-25.4,0-50.8,0-76.2c22.3,0,44.7,0,67,0"/>
	<rect x="74" y="75.2" class="st1" width="76.5" height="76.5"/>
</g>
<g>
	<circle class="st1" cx="112.5" cy="350.8" r="18"/>
	<path class="st2" d="M24,308.8c25.2,0.3,50.3,0.6,75.5,1c0.3-22.2,0.6-44.3,0.9-66.5"/>
	<path class="st3" d="M198.5,309.8c-25.4,0-50.8,0-76.2,0c0-22.3,0-44.7,0-67"/>
	<rect x="73.5" y="218.2" class="st1" width="76.5" height="76.5"/>
</g>
<g>
	<circle class="st1" cx="346" cy="255" r="18"/>
	<path class="st2" d="M304,343.5c0.3-25.2,0.6-50.3,1-75.5c-22.2-0.3-44.3-0.6-66.5-0.9"/>
	<path class="st3" d="M305,169c0,25.4,0,50.8,0,76.2c-22.3,0-44.7,0-67,0"/>
	<rect x="213.5" y="217.5" class="st1" width="76.5" height="76.5"/>
</g>
<g>
	<circle class="st1" cx="252.8" cy="18" r="18"/>
	<path class="st2" d="M341.2,60c-25.2-0.3-50.3-0.6-75.5-1c-0.3,22.2-0.6,44.3-0.9,66.5"/>
	<path class="st3" d="M166.8,59c25.4,0,50.8,0,76.2,0c0,22.3,0,44.7,0,67"/>
	<rect x="215.3" y="74" class="st1" width="76.5" height="76.5"/>
</g>
</svg>
